<?xml version="1.0" encoding="UTF-8" standalone="no"?>
<svg
   xmlns:dc="http://purl.org/dc/elements/1.1/"
   xmlns:cc="http://creativecommons.org/ns#"
   xmlns:rdf="http://www.w3.org/1999/02/22-rdf-syntax-ns#"
   xmlns:svg="http://www.w3.org/2000/svg"
   xmlns="http://www.w3.org/2000/svg"
   xmlns:sodipodi="http://sodipodi.sourceforge.net/DTD/sodipodi-0.dtd"
   xmlns:inkscape="http://www.inkscape.org/namespaces/inkscape"
   inkscape:version="1.0 (4035a4fb49, 2020-05-01)"
   sodipodi:docname="custom.svg"
   id="svg34"
   version="1.1"
   viewBox="0 0 44 44"
   height="44"
   width="44">
  <metadata
     id="metadata40">
    <rdf:RDF>
      <cc:Work
         rdf:about="">
        <dc:format>image/svg+xml</dc:format>
        <dc:type
           rdf:resource="http://purl.org/dc/dcmitype/StillImage" />
        <dc:title></dc:title>
      </cc:Work>
    </rdf:RDF>
  </metadata>
  <defs
     id="defs38" />
  <sodipodi:namedview
     inkscape:current-layer="svg34"
     inkscape:window-maximized="1"
     inkscape:window-y="-8"
     inkscape:window-x="-8"
     inkscape:cy="22"
     inkscape:cx="22"
     inkscape:zoom="12.227273"
     showgrid="false"
     id="namedview36"
     inkscape:window-height="705"
     inkscape:window-width="1366"
     inkscape:pageshadow="2"
     inkscape:pageopacity="0"
     guidetolerance="10"
     gridtolerance="10"
     objecttolerance="10"
     borderopacity="1"
     bordercolor="#666666"
     pagecolor="#ffffff" />
  <g
     id="g48">
    <g
       id="g30">
      <path
         id="path26"
         d="m 41.322,25.71 c -1.44,0.513 -2.837,1.762 -3.243,2.743 -0.406,0.98 -0.298,2.85 0.357,4.23 0.656,1.379 0.259,3.427 -0.886,4.572 -1.146,1.147 -3.194,1.544 -4.573,0.887 -1.38,-0.656 -3.252,-0.764 -4.233,-0.356 -0.98,0.41 -2.227,1.808 -2.739,3.246 -0.512,1.436 -2.241,2.601 -3.861,2.601 -1.62,0 -3.35,-1.165 -3.862,-2.6 C 17.77,39.594 16.523,38.196 15.542,37.789 14.56,37.381 12.69,37.486 11.31,38.142 9.93,38.799 7.883,38.402 6.737,37.255 5.592,36.11 5.195,34.062 5.851,32.683 6.507,31.304 6.614,29.434 6.206,28.453 5.798,27.474 4.406,26.223 2.966,25.711 1.526,25.199 0.36,23.47 0.36,21.85 0.36,20.23 1.526,18.5 2.966,17.993 4.406,17.483 5.796,16.232 6.204,15.25 6.611,14.266 6.507,12.397 5.851,11.017 5.195,9.637 5.591,7.591 6.737,6.443 7.883,5.297 9.932,4.902 11.31,5.558 c 1.38,0.656 3.25,0.764 4.231,0.357 0.981,-0.406 2.23,-1.803 2.741,-3.242 0.512,-1.439 2.241,-2.606 3.862,-2.606 1.62,0 3.35,1.167 3.861,2.606 0.512,1.44 1.76,2.837 2.74,3.242 0.982,0.407 2.852,0.3 4.232,-0.357 1.38,-0.656 3.427,-0.261 4.573,0.885 1.145,1.148 1.542,3.195 0.886,4.574 -0.655,1.379 -0.76,3.252 -0.355,4.234 0.406,0.984 1.8,2.232 3.24,2.742 1.44,0.508 2.606,2.237 2.606,3.857 0,1.62 -1.166,3.349 -2.605,3.86 z M 30.128,21.86 c 0,-4.419 -3.574,-7.994 -7.984,-7.994 a 7.988,7.988 0 0 0 -7.994,7.994 7.984,7.984 0 0 0 7.994,7.983 7.981,7.981 0 0 0 7.984,-7.983 z" />
      <path
         id="path28"
         d="m 41.322,25.71 c -1.44,0.513 -2.837,1.762 -3.243,2.743 -0.406,0.98 -0.298,2.85 0.357,4.23 0.656,1.379 0.259,3.427 -0.886,4.572 -1.146,1.147 -3.194,1.544 -4.573,0.887 -1.38,-0.656 -3.252,-0.764 -4.233,-0.356 -0.98,0.41 -2.227,1.808 -2.739,3.246 -0.512,1.436 -2.241,2.601 -3.861,2.601 -1.62,0 -3.35,-1.165 -3.862,-2.6 C 17.77,39.594 16.523,38.196 15.542,37.789 14.56,37.381 12.69,37.486 11.31,38.142 9.93,38.799 7.883,38.402 6.737,37.255 5.592,36.11 5.195,34.062 5.851,32.683 6.507,31.304 6.614,29.434 6.206,28.453 5.798,27.474 4.406,26.223 2.966,25.711 1.526,25.199 0.36,23.47 0.36,21.85 0.36,20.23 1.526,18.5 2.966,17.993 4.406,17.483 5.796,16.232 6.204,15.25 6.611,14.266 6.507,12.397 5.851,11.017 5.195,9.637 5.591,7.591 6.737,6.443 7.883,5.297 9.932,4.902 11.31,5.558 c 1.38,0.656 3.25,0.764 4.231,0.357 0.981,-0.406 2.23,-1.803 2.741,-3.242 0.512,-1.439 2.241,-2.606 3.862,-2.606 1.62,0 3.35,1.167 3.861,2.606 0.512,1.44 1.76,2.837 2.74,3.242 0.982,0.407 2.852,0.3 4.232,-0.357 1.38,-0.656 3.427,-0.261 4.573,0.885 1.145,1.148 1.542,3.195 0.886,4.574 -0.655,1.379 -0.76,3.252 -0.355,4.234 0.406,0.984 1.8,2.232 3.24,2.742 1.44,0.508 2.606,2.237 2.606,3.857 0,1.62 -1.166,3.349 -2.605,3.86 z M 30.128,21.86 c 0,-4.419 -3.574,-7.994 -7.984,-7.994 a 7.988,7.988 0 0 0 -7.994,7.994 7.984,7.984 0 0 0 7.994,7.983 7.981,7.981 0 0 0 7.984,-7.983 z"
         fill="#555555" />
    </g>
  </g>
</svg>
